<?xml version="1.0" encoding="utf-8"?>
<!-- Svg Vector Icons : http://www.onlinewebfonts.com/icon -->
<!DOCTYPE svg PUBLIC "-//W3C//DTD SVG 1.1//EN" "http://www.w3.org/Graphics/SVG/1.1/DTD/svg11.dtd">
<svg version="1.1" xmlns="http://www.w3.org/2000/svg" xmlns:xlink="http://www.w3.org/1999/xlink" x="0px" y="0px" viewBox="0 0 256 256" enable-background="new 0 0 256 256" xml:space="preserve">
<metadata> Svg Vector Icons : http://www.onlinewebfonts.com/icon </metadata>
<g><g><path fill="#000000" d="M201.5,39.5h-22.1V24.8h-19.8C153.3,16,141.6,10,128,10s-25.3,6-31.7,14.8H76.5v14.7H54.5c-16.3,0-29.4,13.2-29.4,29.5v147.5c0,16.3,13.2,29.5,29.4,29.5h147.1c16.3,0,29.4-13.2,29.4-29.5V69C230.9,52.7,217.8,39.5,201.5,39.5z M91.2,39.5h16.4c0-8.1,9.2-14.7,20.4-14.7c11.3,0,20.4,6.6,20.4,14.7h16.4V69H91.2V39.5z M179.4,201.8H76.5c-4.1,0-7.3-3.3-7.3-7.4c0-4.1,3.3-7.4,7.3-7.4h102.9c4.1,0,7.3,3.3,7.3,7.4C186.8,198.4,183.5,201.8,179.4,201.8z M179.4,164.9H76.5c-4.1,0-7.3-3.3-7.3-7.4s3.3-7.4,7.3-7.4h102.9c4.1,0,7.3,3.3,7.3,7.4S183.5,164.9,179.4,164.9z M179.4,128H76.5c-4.1,0-7.3-3.3-7.3-7.4c0-4.1,3.3-7.4,7.3-7.4h102.9c4.1,0,7.3,3.3,7.3,7.4C186.8,124.7,183.5,128,179.4,128z"/></g></g>
</svg>